<svg t="1708481669612" class="icon" viewBox="0 0 2415 1024" version="1.1" xmlns="http://www.w3.org/2000/svg" p-id="1582"
    width="200" height="200">
    <path
        d="M236.117643 968.910178c35.683976 12.519058 65.468653-5.034746 60.425431-37.599553-5.32293-26.25866-34.438003-28.191189-46.677353-21.274769-12.519058 7.535167-10.01016 30.657706 3.161549 33.785351 21.927422 1.271401 25.368679-13.739602 25.368679-13.739602s4.992366 27.53006-22.257986 29.437161c-27.8691 1.822341-46.957061-26.334944-46.957061-26.334944 2.814033-22.54617-1.245973-28.12338-1.245973-28.12338-0.322088 8.73876-8.153916 12.519058-16.596015 12.519058-11.586697-1.271401-7.823351-8.789616-7.823351-8.789616 17.214764-5.000842 15.663655-26.93674 15.663655-26.93674-23.190346 14.417682-33.844683 0.59332-33.844683 0.59332 16.579063-6.255291 12.213921-22.54617 12.213921-22.54617-28.513277 18.7913-56.382377 3.178501-56.382377 3.178501s11.900309-10.662813 12.213921-28.208141c-3.110693-25.063543-23.487006-19.401573-23.487006-19.401573s1.585013 9.41684-2.195285 19.401573c-5.331406 21.274769-30.030481 13.790458-30.030481 13.790458 24.699075-51.339155-12.239349-86.463714-12.239349-86.463714l11.273085-11.256133c-20.020321-7.535167-26.93674 8.755712-26.93674 8.755712L41.016988 759.696977 41.016988 529.225959l0-35.065228L41.016988 263.638857 49.7727 263.638857c0 0 6.907943 16.290879 26.93674 8.789616l-11.273085-11.290037c0 0 36.938424-35.08218 12.239349-87.658831 0 0 24.699075-6.255291 30.030481 14.383778 3.780298 11.256133 2.195285 19.435477 2.195285 19.435477s20.376313 6.221387 23.487006-18.808252c-0.313612-17.545328-12.213921-28.835365-12.213921-28.835365s27.8691-15.011003 56.382377 3.805726c0 0 4.365142-16.918104-12.213921-22.580074 0 0 10.654337-13.739602 33.844683 0.627224 0 0 1.551109-22.495314-15.663655-28.157285 0 0-3.763346-5.661971 7.823351-7.535167 8.4421 0 16.273927 3.771822 16.596015 12.53601 0 0 4.060006-5.000842 1.245973-28.208141 0 0 19.08796-28.784509 46.957061-26.902836 27.250352 2.500421 22.257986 29.437161 22.257986 29.437161s-3.441258-15.044907-25.368679-13.146282c-13.17171 3.093741-15.680607 26.292564-3.161549 33.819255 12.230873 7.484311 41.345946 5.000842 46.677353-21.308673 5.043222-33.192031-24.732979-50.110134-60.425431-37.599553-30.717038 11.290037-42.914007 27.563964-42.914007 27.563964s-8.459052-30.69161 11.900309-42.608871c0 0 15.027955 25.707719 31.62397 7.535167 7.213079-19.418525-8.136964-27.53006-8.136964-27.53006s-37.252037-21.325625-50.440698 26.93674c0 0-3.093741 15.011003-3.093741 18.147124 0 0-12.53601-7.501263-19.410049-5.628066 0 0 5.907775 41.303566-7.857255 59.501546-13.781982 18.774348-25.038115 23.758239-31.912154 20.672973 0 0 10.637385-19.452429 12.519058-44.482068 1.229021-15.663655-2.847937-31.937582-2.847937-31.937582s-6.526523-23.809095-33.497167-40.727198c-17.545328-10.018636-37.870785-6.255291-37.870785-6.255291s-44.185408 0-44.778728 46.355265c1.525681 43.837891 41.913839 46.338313 41.913839 46.338313s21.622286-0.627224 24.139659 18.825204c0 0 15.044907-0.644176 15.646703-13.790458 0.347516-13.790458-9.705024-16.952008-9.705024-16.952008s11.900309-19.367669 4.712658-36.912996C79.226813 43.169523 49.7727 40.686054 42.568097 55.086785 35.694058 68.283922 45.076994 82.023524 52.307025 82.023524c6.874039 0 12.196969-4.98389 12.196969-8.789616 0 0 9.391412 16.290879-11.900309 20.079653-21.291721 3.771822-28.835365-27.563964-19.410049-45.143196 0 0 9.37446-18.774348 32.242718-17.511424 22.241034 1.237497 46.660401 22.54617 42.600395 48.88959 0 0-11.603649-1.271401-14.417682 6.857087 0 0 27.547012 57.662254-23.190346 60.162675l0-14.451586c0 0-12.519058-3.75487-21.274769 15.044907 0 0-2.220713 6.255291-12.205445 3.127645-10.332249-3.127645-9.721976-15.646703 0.618748-15.646703 0 0 5.645019 0 7.823351 1.271401 0 0 0.652652-20.079653-21.630762-20.079653-21.901994 0-18.757396 23.207298-15.646703 27.563964 3.466686 5.034746 19.427001 18.808252 31.32731 21.935898 11.273085 3.771822 31.32731 16.952008 32.55633 46.948585 1.245973 31.318834-21.901994 29.471065-21.901994 29.471065s-8.459052-0.627224-13.154758-10.662813c0 0 0.618748-3.75487 9.391412-3.75487 0 0-5.32293-26.93674-33.514119-15.044907-23.487006 15.044907-7.509739 40.083022-7.509739 40.083022s6.263767 8.789616 9.365984 10.696717c0 0 1.585013-6.255291 6.263767-6.916419l0 238.04009 0 35.065228 0 237.972282c-4.678754-0.627224-6.263767-6.255291-6.263767-6.255291-3.110693 1.237497-9.365984 9.382936-9.365984 9.382936s-15.977267 25.707719 7.509739 40.761102c28.182713 11.256133 33.514119-14.451586 33.514119-14.451586-8.772664 0-9.391412-4.356666-9.391412-4.356666 4.695706-10.662813 13.154758-10.662813 13.154758-10.662813s23.156442-1.890149 21.901994 29.471065c-1.229021 30.030481-21.291721 43.227619-32.55633 46.982489-11.900309 3.093741-27.8691 16.867247-31.32731 21.86809-3.110693 5.000842-6.263767 26.93674 15.646703 26.93674 22.274938 0.627224 21.630762-20.045749 21.630762-20.045749-2.178333 1.907101-7.823351 2.500421-7.823351 2.500421-10.340725-0.59332-10.950997-13.146282-0.618748-16.901152 9.984732-2.500421 12.205445 3.75487 12.205445 3.75487 8.755712 18.181028 21.274769 15.078811 21.274769 15.078811l0-15.078811c50.737359 2.500421 23.190346 60.755995 23.190346 60.755995 2.814033 8.162392 14.417682 6.890991 14.417682 6.890991 4.060006 26.309516-20.359361 47.575809-42.600395 48.253889-22.868258 1.856245-32.242718-16.952008-32.242718-16.952008-9.425316-17.511424-1.881673-48.80483 19.410049-45.041484 21.291721 3.720966 11.900309 20.011845 11.900309 20.011845 0-3.737918-5.32293-8.755712-12.196969-8.755712-7.230031 0-16.612967 13.773506-9.738928 27.563964 7.204603 13.739602 36.658716 11.256133 43.549707-5.628066 7.187651-16.918104-4.712658-35.726356-4.712658-35.726356s10.05254-3.75487 9.705024-17.511424c-0.601796-13.146282-15.646703-13.773506-15.646703-13.773506-2.517373 18.774348-24.139659 18.147124-24.139659 18.147124s-40.388158 3.161549-41.913839 46.931633c0.59332 45.753468 44.778728 46.389169 44.778728 46.389169s20.316981 3.127645 37.870785-7.501263c26.970644-15.044907 33.497167-40.083022 33.497167-40.083022s4.076958-15.680607 2.847937-31.335786c-1.881673-25.029639-12.519058-43.871795-12.519058-43.871795 6.874039-3.771822 18.130172 1.254449 31.912154 20.113557 13.773506 18.740444 7.857255 58.81499 7.857255 58.81499 6.874039 3.127645 19.410049-4.356666 19.410049-4.356666 0 1.822341 3.093741 16.867247 3.093741 16.867247 13.188662 48.88959 50.440698 27.580916 50.440698 27.580916s15.350043-8.162392 8.136964-27.580916c-16.596015-18.774348-31.62397 7.535167-31.62397 7.535167-20.359361-12.519058-11.900309-42.574967-11.900309-42.574967S205.400605 956.391121 236.117643 968.910178L236.117643 968.910178zM1204.729925 962.612507c-7.823351 0-14.40073 6.289195-14.40073 15.044907 0 7.518215 6.577379 14.417682 14.40073 14.417682 8.136964 0 15.002527-6.899467 15.002527-14.417682C1219.723975 968.910178 1212.866888 962.612507 1204.729925 962.612507L1204.729925 962.612507zM2120.418039 968.910178c-14.409206 2.500421-10.069492 21.274769-10.069492 21.274769l-857.085024 1.229021c0 0-2.847937-2.500421-1.576537-8.755712 1.576537-7.518215 6.594331-3.75487 6.594331-3.75487s13.781982 8.789616 19.062532-4.356666c4.102386-13.197138-9.696548-20.672973-21.596858-15.011003-14.375302 9.382936-10.044064 33.158127-10.044064 33.158127s-11.866405 0-15.316139 1.890149c-10.001684 4.407522-13.188662 20.045749-1.864721 27.547012 15.011003 6.289195 24.105755-5.000842 20.978109-8.755712-3.79725-3.093741-3.449734-6.255291-3.449734-6.255291l872.468971 0c5.628066 0 13.76503-1.873197 18.7913-13.163234C2141.718237 982.64978 2134.793342 965.095977 2120.418039 968.910178L2120.418039 968.910178zM131.193192 900.619016c0 0 0 26.93674 7.230031 29.471065 8.476004 3.093741 9.086276-3.75487 8.476004-8.162392C146.899227 921.927689 133.388477 905.051966 131.193192 900.619016L131.193192 900.619016zM139.652244 977.66589c4.399046 0 8.136964-3.771822 8.136964-8.755712 0-3.805726-3.746394-7.569071-8.136964-7.569071-4.695706 0-7.806399 3.75487-7.806399 7.569071C131.845844 973.885592 134.956538 977.66589 139.652244 977.66589L139.652244 977.66589zM139.652244 952.017503c3.763346 0 6.577379-3.195453 6.577379-6.916419 0-3.75487-2.814033-7.535167-6.577379-7.535167-3.737918 0-6.568903 3.771822-6.568903 7.535167C133.074865 948.822049 135.90585 952.017503 139.652244 952.017503L139.652244 952.017503zM2274.503312 983.921181c-6.941847 0-12.561438 4.98389-12.561438 11.883357 0 6.916419 5.61959 11.917261 12.561438 11.917261 6.857087 0 12.485154-5.000842 12.485154-11.917261C2286.979989 988.905071 2281.351923 983.921181 2274.503312 983.921181L2274.503312 983.921181zM2274.503312 977.66589c4.34819 0 8.14544-3.771822 8.14544-8.755712 0-3.805726-3.79725-7.569071-8.14544-7.569071-4.424474 0-8.162392 3.75487-8.162392 7.569071C2266.34092 973.885592 2270.070362 977.66589 2274.503312 977.66589L2274.503312 977.66589zM2367.807161 796.635402c0 0 4.966938 25.707719 33.810779 14.451586 23.766715-15.044907 7.475835-40.761102 7.475835-40.761102s-6.221387-8.14544-9.96778-9.382936c0 0-1.288353 5.628066-6.238339 6.255291L2392.887656 529.225959l0-35.065228L2392.887656 256.129118c4.949986 0.661128 6.238339 6.916419 6.238339 6.916419 3.737918-1.907101 9.96778-10.696717 9.96778-10.696717s16.290879-25.029639-7.475835-40.083022c-28.843841-11.883357-33.810779 15.044907-33.810779 15.044907 8.111536 0 9.382936 3.75487 9.382936 3.75487-5.02627 10.035588-13.180186 10.662813-13.180186 10.662813s-23.13949 1.856245-21.91047-29.471065c0.618748-29.996577 20.689925-43.176763 33.192031-46.948585 11.273085-3.127645 27.57244-16.901152 30.683134-21.935898 3.110693-4.356666 5.645019-27.563964-15.612799-27.563964-21.944374 0-21.334101 20.079653-21.334101 20.079653 2.517373-1.271401 6.882515-1.271401 6.882515-1.271401 10.654337 0 11.934213 12.519058 1.271401 15.646703-9.382936 3.127645-12.544486-3.127645-12.544486-3.127645-8.162392-18.808252-20.647545-15.044907-20.647545-15.044907l0 14.451586c-51.373059-2.500421-23.842999-60.162675-23.842999-60.162675-2.500421-8.128488-13.76503-6.857087-13.76503-6.857087-5.02627-26.334944 20.096605-47.643617 42.617347-48.88959 22.537694-1.254449 31.301882 17.511424 31.301882 17.511424 10.05254 17.579232 2.500421 48.915018-18.808252 45.143196-21.257817-3.788774-11.883357-20.079653-11.883357-20.079653 0 3.805726 5.645019 8.789616 12.502106 8.789616 6.907943 0 16.96896-13.739602 9.425316-26.93674-7.543643-14.40073-36.3112-11.917261-43.829415 4.407522-6.272243 17.545328 5.009318 36.912996 5.009318 36.912996s-10.044064 3.161549-9.425316 16.952008c0.652652 13.146282 15.672131 13.790458 15.672131 13.790458 2.508897-19.452429 23.826047-18.825204 23.826047-18.825204s40.684818-2.500421 41.947743-46.338313c-0.618748-46.355265-44.45664-46.355265-44.45664-46.355265s-20.028797-3.75487-38.226777 6.255291c-26.93674 16.918104-33.785351 40.727198-33.785351 40.727198s-3.788774 16.273927-3.136121 31.937582c1.847769 25.029639 13.781982 44.482068 13.781982 44.482068-7.518215 3.076789-18.7913-1.907101-32.581758-20.672973-13.773506-18.189504-8.153916-59.501546-8.153916-59.501546-6.297671-1.873197-18.799776 5.628066-18.799776 5.628066 0-3.127645-3.110693-18.147124-3.110693-18.147124-13.773506-48.253889-50.771263-26.93674-50.771263-26.93674s-15.612799 8.111536-8.136964 27.53006c16.943532 18.181028 31.96301-7.535167 31.96301-7.535167 20.028797 11.917261 11.273085 42.608871 11.273085 42.608871s-11.883357-16.273927-42.558015-27.563964c-35.709404-12.519058-65.790741 4.407522-60.747519 37.599553 5.628066 26.309516 34.412575 28.784509 46.957061 21.308673 12.502106-7.535167 10.01016-30.725514-3.127645-33.819255-22.58855-1.907101-25.029639 13.146282-25.029639 13.146282s-5.034746-26.93674 22.512266-29.437161c27.57244-1.890149 46.312885 26.902836 46.312885 26.902836-2.458041 23.207298 1.279877 28.208141 1.279877 28.208141 0-8.755712 8.755712-12.53601 16.307831-12.53601 11.874881 1.873197 8.128488 7.535167 8.128488 7.535167-17.553804 5.661971-15.680607 28.157285-15.680607 28.157285 23.22425-14.366826 33.819255-0.627224 33.819255-0.627224-16.290879 5.661971-12.502106 22.580074-12.502106 22.580074 28.784509-18.825204 57.001125-3.805726 57.001125-3.805726s-12.53601 11.290037-12.53601 28.835365c3.127645 25.029639 23.809095 18.808252 23.809095 18.808252s-1.907101-8.179344 1.847769-19.435477c5.645019-20.647545 30.089813-14.383778 30.089813-14.383778-24.444795 52.576651 12.53601 87.658831 12.53601 87.658831l-11.256133 11.290037c20.011845 7.501263 26.25866-8.789616 26.25866-8.789616l8.755712 0 0 230.521874 0 35.065228 0 230.454066-8.755712 0c0 0-6.238339-16.290879-26.25866-8.755712l11.256133 11.256133c0 0-36.972328 35.133036-12.53601 86.463714 0 0-24.444795 7.484311-30.089813-13.790458-3.746394-9.984732-1.847769-19.401573-1.847769-19.401573s-20.672973-5.661971-23.809095 19.401573c0 17.545328 12.53601 28.208141 12.53601 28.208141s-28.208141 15.612799-57.001125-3.178501c0 0-3.788774 16.290879 12.502106 22.54617 0 0-10.595005 13.824362-33.819255-0.59332 0 0-1.881673 21.935898 15.680607 26.93674 0 0 3.746394 7.518215-8.128488 8.789616-7.552119 0-16.307831-3.771822-16.307831-12.519058 0 0-3.737918 5.57721-1.279877 28.12338 0 0-18.740444 28.157285-46.312885 26.334944-27.547012-1.907101-22.512266-29.437161-22.512266-29.437161s2.441089 15.011003 25.029639 13.739602c13.137806-3.127645 15.629751-26.25866 3.127645-33.785351-12.544486-6.916419-41.328994-4.98389-46.957061 21.274769-5.043222 32.564806 25.038115 50.110134 60.747519 37.599553 30.674658-12.519058 42.558015-27.563964 42.558015-27.563964s8.755712 30.064385-11.273085 42.574967c0 0-15.011003-26.309516-31.96301-7.535167-7.475835 19.418525 8.136964 27.580916 8.136964 27.580916s36.997756 21.308673 50.771263-27.580916c0 0 3.110693-15.044907 3.110693-16.867247 0 0 12.502106 7.484311 18.799776 4.356666 0 0-5.61959-40.083022 8.153916-58.81499 13.790458-18.859108 25.063543-23.885379 32.581758-20.113557 0 0-11.934213 18.842156-13.781982 43.871795-0.652652 15.663655 3.136121 31.335786 3.136121 31.335786s6.857087 25.029639 33.785351 40.083022c18.189504 10.628909 38.226777 7.501263 38.226777 7.501263s43.837891-0.627224 44.45664-46.389169c-1.262925-43.770083-41.947743-46.931633-41.947743-46.931633s-21.317149 0.627224-23.826047-18.147124c0 0-15.011003 0.627224-15.672131 13.773506-0.610272 13.756554 9.425316 17.511424 9.425316 17.511424s-11.281561 18.808252-5.009318 35.726356c7.518215 16.884199 36.285772 19.367669 43.829415 5.628066 7.543643-13.790458-2.517373-27.563964-9.425316-27.563964-6.857087 0-12.502106 5.017794-12.502106 8.755712 0 0-9.365984-16.290879 11.883357-20.011845 21.308673-3.75487 28.852317 27.53006 18.808252 45.041484 0 0-8.764188 18.808252-31.301882 16.952008-22.520742-0.67808-47.643617-21.95285-42.617347-48.253889 0 0 11.264609 1.271401 13.76503-6.890991 0 0-27.53006-58.255574 23.842999-60.755995l0 15.078811c0 0 12.485154 3.093741 20.647545-15.078811 0 0 3.161549-6.255291 12.544486-3.75487 10.662813 3.75487 9.37446 16.307831-1.271401 16.901152 0 0-4.365142-0.59332-6.882515-2.500421 0 0-0.610272 20.672973 21.334101 20.045749 21.257817 0 18.723492-21.935898 15.612799-26.93674s-19.410049-18.774348-30.683134-21.86809c-12.502106-3.75487-32.573282-16.952008-33.192031-46.982489-1.237497-31.352738 21.91047-29.471065 21.91047-29.471065s8.153916 0 13.180186 10.662813C2377.190097 792.287212 2375.918697 796.635402 2367.807161 796.635402L2367.807161 796.635402zM2267.552989 945.101084c0 3.720966 3.153073 6.916419 6.941847 6.916419 3.720966 0 6.238339-3.195453 6.238339-6.916419 0-3.75487-2.517373-7.535167-6.238339-7.535167C2270.706062 937.565916 2267.552989 941.346214 2267.552989 945.101084L2267.552989 945.101084zM2266.959668 921.927689c-0.618748 4.407522 0 11.256133 9.365984 8.162392 6.907943-2.534325 6.907943-29.471065 6.907943-29.471065C2280.74165 905.051966 2266.959668 921.927689 2266.959668 921.927689L2266.959668 921.927689zM1183.734863 994.567042c-3.449734-1.890149-15.316139-1.890149-15.316139-1.890149s4.695706-23.775191-10.061016-33.158127c-12.239349-5.661971-26.00438 1.822341-21.57143 15.011003 5.611114 13.146282 19.062532 4.356666 19.062532 4.356666s5.009318-3.75487 6.594331 3.75487c1.296829 6.255291-1.585013 8.755712-1.585013 8.755712l-857.424065-1.229021c0 0 5.305978-18.774348-9.705024-21.274769-14.40073-3.805726-20.995061 13.739602-16.612967 25.029639 5.02627 11.290037 12.87505 13.163234 18.816728 13.163234L1167.757596 1007.086099c0 0 0.669604 3.161549-3.153073 6.255291-3.390402 3.75487 5.628066 15.044907 21.325625 8.755712C1196.906573 1014.612791 1193.45684 998.966088 1183.734863 994.567042L1183.734863 994.567042zM139.652244 983.921181c-6.568903 0-12.519058 4.98389-12.519058 11.883357 0 6.916419 5.941679 11.917261 12.519058 11.917261 6.924895 0 11.925737-5.000842 11.925737-11.917261C151.569505 988.905071 146.577139 983.921181 139.652244 983.921181L139.652244 983.921181zM1230.395264 28.794221c3.441258 1.254449 15.316139 1.254449 15.316139 1.254449s-4.339714 24.402415 10.044064 33.192031c11.900309 6.255291 25.699243-2.534325 21.596858-15.078811-5.28055-12.519058-19.062532-3.720966-19.062532-3.720966s-5.02627 3.127645-6.594331-3.75487c-1.271401-6.255291 1.576537-8.789616 1.576537-8.789616l857.085024 1.288353c0 0-4.339714 18.740444 10.069492 21.901994 14.375302 1.907101 21.300197-14.40073 16.892675-25.690767-5.02627-11.290037-13.163234-13.756554-18.7913-13.756554L1246.058919 15.639463c0 0-0.347516-2.483469 3.449734-5.017794 3.127645-3.771822-5.958631-15.011003-20.978109-8.755712C1217.206602 8.121248 1220.39358 24.395175 1230.395264 28.794221L1230.395264 28.794221zM2283.242072 123.344043c0 0 0-27.53006-6.907943-30.030481-9.365984-3.161549-9.993208 3.771822-9.365984 7.501263C2266.959668 100.814825 2280.74165 118.360153 2283.242072 123.344043L2283.242072 123.344043zM2274.503312 39.406178c6.857087 0 12.485154-4.98389 12.485154-11.883357 0-6.890991-5.628066-11.883357-12.485154-11.883357-6.941847 0-12.561438 5.000842-12.561438 11.883357C2261.933398 34.430763 2267.552989 39.406178 2274.503312 39.406178L2274.503312 39.406178zM2274.503312 46.348025c-4.424474 0-8.162392 3.093741-8.162392 8.111536 0 4.407522 3.729442 7.535167 8.162392 7.535167 4.34819 0 8.14544-3.127645 8.14544-7.535167C2282.648751 49.441766 2278.843026 46.348025 2274.503312 46.348025L2274.503312 46.348025zM2274.503312 72.038792c-3.788774 0-6.941847 2.466517-6.941847 6.221387s3.153073 6.255291 6.941847 6.255291c3.720966 0 6.238339-2.500421 6.238339-6.255291S2278.224277 72.038792 2274.503312 72.038792L2274.503312 72.038792zM1204.729925 31.294642c-7.823351 0-14.40073 6.890991-14.40073 15.044907 0 8.111536 6.577379 14.366826 14.40073 14.366826 8.136964 0 15.002527-6.255291 15.002527-14.366826C1219.723975 38.185633 1212.866888 31.294642 1204.729925 31.294642L1204.729925 31.294642zM139.652244 46.348025c-4.695706 0-7.806399 3.093741-7.806399 8.111536 0 4.407522 3.110693 7.535167 7.806399 7.535167 4.399046 0 8.136964-3.127645 8.136964-7.535167C147.789208 49.441766 144.042814 46.348025 139.652244 46.348025L139.652244 46.348025zM146.899227 100.814825c0.610272-3.720966 0-10.662813-8.476004-7.501263-7.230031 2.500421-7.230031 30.030481-7.230031 30.030481C133.388477 118.360153 146.899227 100.814825 146.899227 100.814825L146.899227 100.814825zM146.229623 78.260179c0-3.75487-2.814033-6.221387-6.577379-6.221387-3.737918 0-6.568903 2.466517-6.568903 6.221387s2.830985 6.255291 6.568903 6.255291C143.41559 84.523946 146.229623 82.023524 146.229623 78.260179L146.229623 78.260179zM139.652244 39.406178c6.924895 0 11.925737-4.98389 11.925737-11.883357 0-6.890991-4.992366-11.883357-11.925737-11.883357-6.568903 0-12.519058 5.000842-12.519058 11.883357C127.133186 34.430763 133.074865 39.406178 139.652244 39.406178L139.652244 39.406178zM293.72904 55.086785c15.011003-3.161549 9.705024-21.901994 9.705024-21.901994l857.424065-1.288353c0 0 2.881841 2.534325 1.585013 8.789616-1.585013 6.890991-6.594331 3.75487-6.594331 3.75487s-13.451418-8.789616-19.062532 3.720966c-4.43295 12.544486 9.33208 21.342577 21.57143 15.078811 14.748247-8.789616 10.061016-33.192031 10.061016-33.192031s11.866405 0 15.316139-1.254449c9.721976-4.407522 13.17171-20.672973 2.195285-26.93674-15.697559-6.255291-24.724503 4.98389-21.325625 8.755712 3.814202 2.534325 3.153073 5.017794 3.153073 5.017794L295.932801 15.630987c-5.941679 0-13.781982 2.466517-18.816728 13.756554C272.742455 40.686054 279.336786 56.993885 293.72904 55.086785L293.72904 55.086785z"
        fill="#d07b70" p-id="1583"></path>
</svg>